<svg width="36" height="32" fill="none" xmlns="http://www.w3.org/2000/svg"><path fill-rule="evenodd" clip-rule="evenodd" d="M19.495 3.492a4.121 4.121 0 1 1-7.725 2.875 4.121 4.121 0 0 1 7.725-2.875z" fill="#FEFEFE"/><path fill-rule="evenodd" clip-rule="evenodd" d="M11.468 5.4a4.121 4.121 0 1 1-7.725 2.876 4.121 4.121 0 0 1 7.725-2.875z" fill="#FEFEFE"/><path fill-rule="evenodd" clip-rule="evenodd" d="M18.128 4.36a1.962 1.962 0 1 1-3.677 1.37 1.962 1.962 0 0 1 3.677-1.37zm-8.026 1.936a1.962 1.962 0 1 1-3.678 1.369 1.962 1.962 0 0 1 3.678-1.369z" fill="#004C37"/><path fill-rule="evenodd" clip-rule="evenodd" d="M18.846 5.748l-5.74 1.326a3.32 3.32 0 0 1-.58-.99 3.276 3.276 0 0 1 .092-2.534 3.285 3.285 0 0 1 1.858-1.727 3.285 3.285 0 0 1 2.535.09 3.294 3.294 0 0 1 1.728 1.86c.24.64.274 1.326.107 1.975zM8.762 9.947A3.317 3.317 0 0 1 4.5 7.996a3.317 3.317 0 0 1 4.485-4.172 3.296 3.296 0 0 1 1.728 1.858 3.319 3.319 0 0 1-1.951 4.265zm24.916-7.625L20.542 5.356a4.912 4.912 0 0 0-.293-2.145A4.9 4.9 0 0 0 17.683.449a4.895 4.895 0 0 0-3.769-.136 4.893 4.893 0 0 0-2.917 2.955 4.936 4.936 0 0 0-5.109-1.046A4.934 4.934 0 0 0 2.99 8.559c.12.322.274.622.45.903L0 13.342 4.657 25.54l27.86 5.804v-5.804l-2.437-1.083.075-2.276c.014-.43-.551-.682-.861-.385l-1.648 1.579-1.494-.664.075-2.284c.014-.43-.551-.681-.861-.384l-1.654 1.583-1.487-.661.075-2.291c.014-.43-.551-.682-.862-.384l-1.659 1.588-8.157-3.625 10.991-1.047 1.073 2.048c.199.38.815.32.938-.09l.665-2.213 1.607-.153 1.071 2.047c.2.38.815.322.939-.09l.665-2.211 1.607-.154 1.071 2.046c.199.38.815.322.939-.09l.664-2.21L36 13.93 33.678 2.322z" fill="#87BD25"/></svg>