<svg width="165" height="40" viewBox="0 0 165 40" fill="none" xmlns="http://www.w3.org/2000/svg">
<g clip-path="url(#clip0_6_1966)">
<path fill-rule="evenodd" clip-rule="evenodd" d="M11.7308 26.9739C11.2908 26.4322 10.6658 25.998 9.87333 25.683C9.09083 25.3714 8.15583 25.1022 7.095 24.8822C5.875 24.6464 5.02167 24.3547 4.55667 24.0147C4.10083 23.683 3.87917 23.2639 3.87917 22.7347C3.87917 22.1297 4.11833 21.6264 4.59 21.2397C5.06833 20.8472 5.74333 20.6489 6.59417 20.6489C8.25417 20.6489 9.21167 21.338 9.5225 22.7564L9.54583 22.863L12.1125 22.1814L12.0975 22.0889C11.9133 20.9055 11.33 19.9397 10.3617 19.2155C9.39667 18.4955 8.15 18.1297 6.655 18.1297C5.545 18.1297 4.545 18.3405 3.685 18.7555C2.8225 19.1714 2.1325 19.743 1.63417 20.4547C1.13417 21.168 0.880833 21.9955 0.880833 22.9139C0.880833 23.873 1.1 24.6555 1.53083 25.2405C1.96 25.8239 2.575 26.2897 3.35833 26.6247C4.13333 26.9572 5.06417 27.2272 6.12417 27.4264C7.25 27.6439 8.09333 27.898 8.63083 28.1814C9.14833 28.4547 9.40083 28.8614 9.40083 29.4239C9.40083 30.0139 9.16 30.4722 8.66417 30.8239C8.165 31.1797 7.42833 31.3597 6.475 31.3597C5.2825 31.3597 4.375 31.1347 3.77667 30.6897C3.1825 30.2497 2.8125 29.5764 2.6775 28.6889L2.66 28.5764L0 29.2247L0.0108333 29.3164C0.173333 30.7597 0.803333 31.8947 1.8825 32.688C2.95583 33.478 4.50083 33.8789 6.475 33.8789C7.6425 33.8789 8.68667 33.6789 9.5775 33.2847C10.4692 32.8897 11.175 32.3322 11.675 31.6289C12.175 30.9247 12.4283 30.1122 12.4283 29.2114C12.4075 28.2722 12.1733 27.5189 11.7308 26.9739Z" fill="#004C37"/>
<path fill-rule="evenodd" clip-rule="evenodd" d="M27.078 19.8365C26.2213 18.704 24.9613 18.1298 23.3347 18.1298C21.9572 18.1298 20.7347 18.5465 19.6997 19.3681C18.7997 20.0823 18.0688 21.074 17.523 22.3198L17.683 18.3698H14.5905V33.6081H17.6488L17.6497 33.5048C17.6688 30.3306 17.8997 27.7948 18.3355 25.9681C18.7697 24.1556 19.3613 22.8598 20.0938 22.1173C20.8197 21.3815 21.668 21.0081 22.6155 21.0081C23.3413 21.0081 23.9238 21.2248 24.3472 21.6506C24.9713 22.2798 25.2822 23.3906 25.2705 24.954L25.2097 33.6081H28.268L28.3288 24.6848C28.348 22.5906 27.928 20.959 27.078 19.8365Z" fill="#004C37"/>
<path fill-rule="evenodd" clip-rule="evenodd" d="M37.1341 31.0897C36.0924 31.0897 35.2516 30.6897 34.6366 29.8997C34.0141 29.1039 33.6982 27.9647 33.6982 26.5147C33.6982 24.8264 34.1099 23.4497 34.9207 22.4239C35.7266 21.4047 36.8141 20.888 38.1541 20.888C39.2766 20.888 40.1741 21.2597 40.8216 21.9922C41.4707 22.7305 41.7999 23.7572 41.7999 25.0439C41.7999 26.2239 41.5907 27.2847 41.1791 28.1964C40.7682 29.1055 40.2049 29.823 39.5032 30.3297C38.8049 30.8339 38.0074 31.0897 37.1341 31.0897ZM42.5366 18.3997L42.2116 20.268C41.8449 19.6697 41.3207 19.173 40.6507 18.7889C39.8882 18.3514 39.0074 18.1297 38.0341 18.1297C36.5816 18.1297 35.2757 18.4939 34.1532 19.2114C33.0324 19.9289 32.1416 20.9472 31.5057 22.238C30.8716 23.528 30.5499 25.0272 30.5499 26.6947C30.5499 28.0822 30.7849 29.3272 31.2482 30.3955C31.7141 31.4689 32.4074 32.3264 33.3107 32.9447C34.2132 33.5647 35.3382 33.8789 36.6541 33.8789C37.8291 33.8789 38.8882 33.5697 39.8016 32.9614C40.6024 32.4272 41.2774 31.7139 41.8132 30.8339L41.7057 33.608H44.8591V18.3997H42.5366Z" fill="#004C37"/>
<path fill-rule="evenodd" clip-rule="evenodd" d="M55.7042 20.8879C56.7442 20.8879 57.5842 21.2879 58.2017 22.0779C58.8242 22.877 59.1401 24.0062 59.1401 25.4345C59.1401 27.122 58.7284 28.5037 57.9167 29.5404C57.1126 30.5687 56.0251 31.0895 54.6842 31.0895C53.5609 31.0895 52.6634 30.7179 52.0176 29.9854C51.3676 29.2495 51.0384 28.2129 51.0384 26.9045C51.0384 25.7254 51.2476 24.6695 51.6592 23.767C52.0701 22.8679 52.6334 22.1554 53.3351 21.6487C54.0342 21.1437 54.8317 20.8879 55.7042 20.8879ZM61.5901 21.5829C61.1234 20.5087 60.4292 19.6562 59.5267 19.0479C58.6234 18.4387 57.4992 18.1295 56.1842 18.1295C54.9901 18.1295 53.9209 18.4337 53.0076 19.032C52.2067 19.557 51.5309 20.2745 50.9951 21.1679L51.1026 18.3704H47.9792V39.6087H51.0684V33.5004L51.0201 32.2529C51.4201 32.7112 51.9192 33.087 52.5084 33.3729C53.2001 33.7087 53.9826 33.8787 54.8342 33.8787C56.2667 33.8787 57.5626 33.5095 58.6859 32.782C59.8068 32.0545 60.6976 31.0362 61.3317 29.7562C61.9667 28.4754 62.2884 26.9712 62.2884 25.2837C62.2884 23.897 62.0534 22.652 61.5901 21.5829Z" fill="#004C37"/>
<path fill-rule="evenodd" clip-rule="evenodd" d="M76.7308 25.5103H69.3283L73.1017 16.2061L76.7308 25.5103ZM74.52 12.1653L74.4933 12.1003H71.7742L62.7775 33.4636L62.7167 33.6086H66.0342L68.1933 28.2986H77.8025L79.8458 33.5419L79.8725 33.6086H83.1883L74.52 12.1653Z" fill="#004C37"/>
<path fill-rule="evenodd" clip-rule="evenodd" d="M90.1737 31.0897C89.132 31.0897 88.2912 30.6897 87.6762 29.8997C87.0537 29.1039 86.7378 27.9647 86.7378 26.5147C86.7378 24.8264 87.1495 23.4497 87.9603 22.4239C88.7662 21.4047 89.8537 20.888 91.1937 20.888C92.3162 20.888 93.2137 21.2597 93.8612 21.9922C94.5103 22.7305 94.8395 23.7572 94.8395 25.0439C94.8395 26.2239 94.6303 27.2847 94.2187 28.1964C93.8078 29.1055 93.2445 29.823 92.5428 30.3297C91.8445 30.8339 91.047 31.0897 90.1737 31.0897ZM94.8095 11.1997V18.478L94.8578 19.7039C94.4578 19.2622 93.9587 18.898 93.3678 18.6197C92.6762 18.2947 91.9045 18.1297 91.0737 18.1297C89.6212 18.1297 88.3153 18.4939 87.1928 19.2114C86.072 19.9289 85.1812 20.9472 84.5453 22.238C83.9112 23.528 83.5895 25.0272 83.5895 26.6947C83.5895 28.0822 83.8245 29.3272 84.2878 30.3955C84.7537 31.4689 85.447 32.3264 86.3503 32.9447C87.2528 33.5647 88.3778 33.8789 89.6937 33.8789C90.8687 33.8789 91.9278 33.5697 92.8412 32.9614C93.642 32.4272 94.317 31.7139 94.8528 30.8339L94.7453 33.608H97.8987V11.1997H94.8095Z" fill="#004C37"/>
<path fill-rule="evenodd" clip-rule="evenodd" d="M106.883 31.0897C105.842 31.0897 105.001 30.6897 104.386 29.8997C103.763 29.1039 103.448 27.9647 103.448 26.5147C103.448 24.8264 103.859 23.4497 104.67 22.4239C105.476 21.4047 106.563 20.888 107.903 20.888C109.026 20.888 109.923 21.2597 110.571 21.9922C111.22 22.7305 111.549 23.7572 111.549 25.0439C111.549 26.2239 111.34 27.2847 110.928 28.1964C110.518 29.1055 109.954 29.823 109.253 30.3297C108.554 30.8339 107.757 31.0897 106.883 31.0897ZM111.519 11.1997V18.478L111.568 19.7039C111.168 19.2622 110.668 18.898 110.078 18.6197C109.386 18.2947 108.614 18.1297 107.783 18.1297C106.331 18.1297 105.025 18.4939 103.903 19.2114C102.782 19.9289 101.891 20.9472 101.255 22.238C100.621 23.528 100.299 25.0272 100.299 26.6947C100.299 28.0822 100.534 29.3272 100.998 30.3955C101.463 31.4689 102.157 32.3264 103.06 32.9447C103.963 33.5647 105.088 33.8789 106.403 33.8789C107.578 33.8789 108.638 33.5697 109.551 32.9614C110.352 32.4272 111.027 31.7139 111.563 30.8339L111.455 33.608H114.608V11.1997H111.519Z" fill="#004C37"/>
<path fill-rule="evenodd" clip-rule="evenodd" d="M127.99 18.3699L127.989 18.4733C127.97 21.5291 127.749 23.9741 127.332 25.7399C126.919 27.4924 126.338 28.7583 125.605 29.5008C124.879 30.2375 124.03 30.6099 123.084 30.6099C122.166 30.6099 121.494 30.2933 121.086 29.6674C120.669 29.0283 120.458 28.1183 120.458 26.9658L120.548 18.475L120.549 18.3699H117.49L117.399 27.2325C117.38 29.1883 117.796 30.735 118.636 31.8275C119.484 32.93 120.738 33.4891 122.364 33.4891C123.68 33.4891 124.873 33.0983 125.905 32.3283C126.81 31.6541 127.552 30.6666 128.114 29.3883L128.019 31.6116C127.96 33.5374 127.545 34.9533 126.786 35.8208C126.029 36.6833 124.734 37.1199 122.934 37.1199C122.143 37.1199 121.364 37.0299 120.617 36.8524C119.87 36.6758 119.152 36.4166 118.48 36.0808L118.368 36.0249L117.591 38.7425L117.66 38.7833C118.308 39.1683 119.122 39.4549 120.079 39.6374C121.029 39.8166 121.949 39.9083 122.814 39.9083C125.451 39.9083 127.489 39.1808 128.874 37.7466C130.257 36.3124 130.959 34.1183 130.959 31.2241V18.3699H127.99Z" fill="#004C37"/>
<path fill-rule="evenodd" clip-rule="evenodd" d="M151.165 2.90954C151.827 4.68704 150.923 6.66371 149.145 7.32621C147.368 7.98787 145.39 7.08287 144.729 5.30537C144.067 3.52871 144.972 1.55121 146.749 0.889541C148.526 0.227874 150.504 1.13204 151.165 2.90954Z" fill="#FEFEFE"/>
<path fill-rule="evenodd" clip-rule="evenodd" d="M144.477 4.50103C145.138 6.27853 144.234 8.2552 142.457 8.9177C140.679 9.57937 138.702 8.67437 138.04 6.89687C137.378 5.1202 138.283 3.1427 140.06 2.48103C141.838 1.81937 143.815 2.72353 144.477 4.50103Z" fill="#FEFEFE"/>
<path fill-rule="evenodd" clip-rule="evenodd" d="M150.026 3.6337C150.341 4.48037 149.911 5.4212 149.065 5.7362C148.218 6.0512 147.277 5.6212 146.961 4.77453C146.646 3.9287 147.077 2.98703 147.924 2.67203C148.77 2.35703 149.711 2.78703 150.026 3.6337Z" fill="#004C37"/>
<path fill-rule="evenodd" clip-rule="evenodd" d="M143.338 5.24671C143.653 6.09337 143.222 7.03421 142.376 7.34921C141.53 7.66421 140.589 7.23421 140.273 6.38754C139.958 5.54171 140.389 4.60004 141.235 4.28504C142.081 3.97004 143.023 4.40004 143.338 5.24671Z" fill="#004C37"/>
<path fill-rule="evenodd" clip-rule="evenodd" d="M150.625 4.78979L145.842 5.89479C145.637 5.65312 145.472 5.37645 145.358 5.07062C145.099 4.37978 145.127 3.62979 145.435 2.95812C145.742 2.28645 146.291 1.77562 146.983 1.51895C147.298 1.40062 147.623 1.34312 147.95 1.34312C148.34 1.34312 148.73 1.42645 149.096 1.59395C149.767 1.90145 150.278 2.45145 150.536 3.14395C150.736 3.67812 150.764 4.24895 150.625 4.78979ZM142.222 8.28895C140.796 8.82228 139.202 8.09062 138.67 6.66312C138.137 5.23562 138.866 3.64145 140.295 3.10979C140.608 2.99312 140.935 2.93395 141.26 2.93395C141.65 2.93395 142.042 3.01895 142.407 3.18645C143.079 3.49395 143.59 4.04395 143.847 4.73479C144.38 6.16229 143.651 7.75645 142.222 8.28895ZM162.985 1.93479L152.038 4.46312C152.091 3.86395 152.01 3.25645 151.794 2.67562C151.412 1.64895 150.652 0.830619 149.656 0.373952C148.653 -0.0827147 147.542 -0.121881 146.515 0.260619C145.488 0.643119 144.672 1.40229 144.215 2.40062C144.166 2.50645 144.123 2.61395 144.084 2.72312C142.982 1.68062 141.341 1.28895 139.827 1.85145C137.705 2.64229 136.622 5.01062 137.412 7.13229C137.512 7.40062 137.64 7.65062 137.787 7.88479L134.92 11.119L138.801 21.2823L162.017 26.119V21.2823L159.987 20.3798L160.049 18.4831C160.061 18.1248 159.59 17.9148 159.332 18.1623L157.958 19.4781L156.713 18.9248L156.776 17.0215C156.787 16.664 156.317 16.454 156.058 16.7015L154.68 18.0206L153.441 17.4698L153.503 15.5606C153.515 15.2031 153.044 14.9923 152.785 15.2406L151.402 16.564L144.605 13.5431L153.764 12.6706L154.658 14.3773C154.824 14.694 155.337 14.6448 155.44 14.3023L155.994 12.4581L157.333 12.3306L158.226 14.0365C158.392 14.3531 158.905 14.3048 159.008 13.9615L159.562 12.119L160.902 11.9906L161.794 13.6956C161.96 14.0123 162.473 13.964 162.577 13.6206L163.13 11.779L164.92 11.6081L162.985 1.93479Z" fill="#87BD25"/>
</g>
<defs>
<clipPath id="clip0_6_1966">
<rect width="165" height="40" fill="white"/>
</clipPath>
</defs>
</svg>
